trial_3_IK.mot
nRows=11
nColumns=42

name trial_3_IK.mot
datacolumns 42
datarows 11
range 5.6800000000 5.7800000000
endheader
time	pelvis_tilt	pelvis_list	pelvis_rotation	pelvis_tx	pelvis_ty	pelvis_tz	hip_flexion_r	hip_adduction_r	hip_rotation_r	knee_angle_r	knee_vv_r	knee_rot_r	ankle_angle_r	subtalar_angle_r	mtp_angle_r	hip_flexion_l	hip_adduction_l	hip_rotation_l	knee_angle_l	knee_vv_l	knee_rot_l	ankle_angle_l	subtalar_angle_l	mtp_angle_l	lumbar_extension	lumbar_bending	lumbar_rotation	arm_flex_r	arm_add_r	arm_rot_r	elbow_flex_r	pro_sup_r	wrist_flex_r	wrist_dev_r	arm_flex_l	arm_add_l	arm_rot_l	elbow_flex_l	pro_sup_l	wrist_flex_l	wrist_dev_l
        5.6800000000	        8.5522545200	       -1.5494129600	        3.7359144400	        0.0890987200	        0.9172759000	        0.0008123900	       -0.3016697500	        5.1490235000	       -1.8227846000	      -10.4103130900	        0.0000000000	        0.0000000000	        4.7868846600	        0.0000000000	        0.0000000000	        8.9003759400	       -5.1683313600	       -1.9309498300	      -58.2961262700	        0.0000000000	        0.0000000000	       -4.4773233500	        0.0000000000	        0.0000000000	      -23.6716141000	        0.5809863700	        2.7697165700	       17.8494770900	      -19.8017209700	       27.3882823000	       21.6737290800	       86.5166270600	        0.0000000000	        0.0000000000	        2.4367177300	       -9.0843127200	       46.1982333500	        1.3150423900	       85.9436692700	        0.0000000000	        0.0000000000	
        5.6900000000	        8.3177069600	       -1.3969999400	        3.4769424800	        0.0876302600	        0.9177756500	        0.0018583000	       -0.7235553800	        5.0600390100	       -1.5892975200	      -10.0511507800	        0.0000000000	        0.0000000000	        5.0187491200	        0.0000000000	        0.0000000000	       10.1767262600	       -4.9738400800	       -2.3649777700	      -57.8061970300	        0.0000000000	        0.0000000000	       -3.3416162700	        0.0000000000	        0.0000000000	      -23.5128100800	        0.2046048400	        3.2793133300	       18.4394334700	      -20.2719750000	       26.3613010800	       22.7111796800	       86.5166270600	        0.0000000000	        0.0000000000	        1.8632406900	       -8.9871728400	       46.1254747600	        1.2524115200	       85.9436692700	        0.0000000000	        0.0000000000	
        5.7000000000	        8.0698136700	       -1.2336253800	        3.2116770600	        0.0861642700	        0.9182067300	        0.0028148800	       -1.1237571400	        4.9399513900	       -1.4210958300	       -9.7069459500	        0.0000000000	        0.0000000000	        5.2474965800	        0.0000000000	        0.0000000000	       11.3822924400	       -4.7571974100	       -2.8463458700	      -57.0021890700	        0.0000000000	        0.0000000000	       -2.3421331200	        0.0000000000	        0.0000000000	      -23.3241685100	       -0.1753546300	        3.7655065000	       18.9996993500	      -20.7222272500	       25.4110277200	       23.7027732300	       86.5166270600	        0.0000000000	        0.0000000000	        1.3087415700	       -8.9104929800	       46.0420455200	        1.2110155400	       85.9436692700	        0.0000000000	        0.0000000000	
        5.7100000000	        7.8226428700	       -1.0671191300	        2.9472714700	        0.0847513900	        0.9185771100	        0.0036614800	       -1.5202154700	        4.7963498400	       -1.3297555200	       -9.3730535100	        0.0000000000	        0.0000000000	        5.4739267600	        0.0000000000	        0.0000000000	       12.4954898600	       -4.5337588400	       -3.3749583200	      -55.9005859500	        0.0000000000	        0.0000000000	       -1.5040983900	        0.0000000000	        0.0000000000	      -23.1229916600	       -0.5446398800	        4.2266035700	       19.5303647000	      -21.1567684000	       24.5314251500	       24.6601168900	       86.5166270600	        0.0000000000	        0.0000000000	        0.7766507000	       -8.8478401200	       45.9470176700	        1.1874126700	       85.9436692700	        0.0000000000	        0.0000000000	
        5.7200000000	        7.5915999900	       -0.9054286300	        2.6885532100	        0.0834025000	        0.9188755600	        0.0043909700	       -1.9353317100	        4.6403540000	       -1.3103967300	       -9.0418335100	        0.0000000000	        0.0000000000	        5.6992032500	        0.0000000000	        0.0000000000	       13.4935829600	       -4.3178675400	       -3.9510773500	      -54.5182813800	        0.0000000000	        0.0000000000	       -0.8391637000	        0.0000000000	        0.0000000000	      -22.9281948900	       -0.8905813600	        4.6621487500	       20.0295182300	      -21.5792318000	       23.7105062100	       25.5963883500	       86.5166270600	        0.0000000000	        0.0000000000	        0.2695992700	       -8.7940358100	       45.8342811700	        1.1797397500	       85.9436692700	        0.0000000000	        0.0000000000	
        5.7300000000	        7.3922518300	       -0.7562994600	        2.4370737400	        0.0821085100	        0.9191010400	        0.0050107200	       -2.3905492000	        4.4849553600	       -1.3445829900	       -8.7059192400	        0.0000000000	        0.0000000000	        5.9254370300	        0.0000000000	        0.0000000000	       14.3590238000	       -4.1187275400	       -4.5730539800	      -52.8697714600	        0.0000000000	        0.0000000000	       -0.3437647700	        0.0000000000	        0.0000000000	      -22.7578044000	       -1.2036590700	        5.0740608200	       20.4953125100	      -21.9916771500	       22.9350147700	       26.5219115500	       86.5166270600	        0.0000000000	        0.0000000000	       -0.2103644800	       -8.7458498300	       45.6943118700	        1.1871784800	       85.9436692700	        0.0000000000	        0.0000000000	
        5.7400000000	        7.2371560600	       -0.6256811200	        2.1915876700	        0.0808768000	        0.9192597300	        0.0055392400	       -2.9006598800	        4.3416466200	       -1.4060547700	       -8.3612311200	        0.0000000000	        0.0000000000	        6.1560429300	        0.0000000000	        0.0000000000	       15.0817909500	       -3.9376937400	       -5.2340821900	      -50.9669122100	        0.0000000000	        0.0000000000	       -0.0020919100	        0.0000000000	        0.0000000000	      -22.6260859900	       -1.4782366000	        5.4679381700	       20.9273945100	      -22.3942522000	       22.1940357300	       27.4402571900	       86.5166270600	        0.0000000000	        0.0000000000	       -0.6615787200	       -8.7022072400	       45.5163583800	        1.2094268900	       85.9436692700	        0.0000000000	        0.0000000000	
        5.7500000000	        7.1314379200	       -0.5160694200	        1.9495585000	        0.0797186800	        0.9193442600	        0.0059992500	       -3.4706791000	        4.2170608400	       -1.4674142800	       -8.0086476800	        0.0000000000	        0.0000000000	        6.3956289300	        0.0000000000	        0.0000000000	       15.6574929800	       -3.7678195600	       -5.9193741500	      -48.8214198500	        0.0000000000	        0.0000000000	        0.2077328900	        0.0000000000	        0.0000000000	      -22.5401424500	       -1.7124078400	        5.8524193300	       21.3264509900	      -22.7856301300	       21.4805993400	       28.3461748100	       86.5166270600	        0.0000000000	        0.0000000000	       -1.0817728300	       -8.6635717900	       45.2906139600	        1.2465140000	       85.9436692700	        0.0000000000	        0.0000000000	
        5.7600000000	        7.0718977100	       -0.4262194600	        1.7082829900	        0.0786455800	        0.9193463800	        0.0063964800	       -4.0959845100	        4.1111359900	       -1.5056760300	       -7.6531098000	        0.0000000000	        0.0000000000	        6.6493386000	        0.0000000000	        0.0000000000	       16.0862710200	       -3.5960790300	       -6.6051697900	      -46.4468084100	        0.0000000000	        0.0000000000	        0.3067624600	        0.0000000000	        0.0000000000	      -22.4977453000	       -1.9073926000	        6.2355500100	       21.6923100300	      -23.1639459100	       20.7910527800	       29.2261548600	       86.5166270600	        0.0000000000	        0.0000000000	       -1.4672716200	       -8.6308120900	       45.0101162900	        1.2986157100	       85.9436692700	        0.0000000000	        0.0000000000	
        5.7700000000	        7.0496380700	       -0.3522062600	        1.4657844400	        0.0776868500	        0.9192741200	        0.0067119300	       -4.7650783300	        4.0180257000	       -1.5053005400	       -7.3004656500	        0.0000000000	        0.0000000000	        6.9217825300	        0.0000000000	        0.0000000000	       16.3740694400	       -3.4074956200	       -7.2601753600	      -43.8577719200	        0.0000000000	        0.0000000000	        0.3101673800	        0.0000000000	        0.0000000000	      -22.4888691800	       -2.0668977500	        6.6199490700	       22.0227640600	      -23.5271936900	       20.1229528300	       30.0617403300	       86.5166270600	        0.0000000000	        0.0000000000	       -1.8144588800	       -8.6038409500	       44.6722653500	        1.3653243500	       85.9436692700	        0.0000000000	        0.0000000000	
        5.7800000000	        7.0523758600	       -0.2890789600	        1.2220239200	        0.0768615800	        0.9191347700	        0.0069244100	       -5.4637059800	        3.9296275600	       -1.4584386200	       -6.9542233200	        0.0000000000	        0.0000000000	        7.2158834500	        0.0000000000	        0.0000000000	       16.5328413600	       -3.1893793800	       -7.8485587700	      -41.0687221800	        0.0000000000	        0.0000000000	        0.2256546000	        0.0000000000	        0.0000000000	      -22.5007860000	       -2.1963087300	        7.0002963300	       22.3155574200	      -23.8718507600	       19.4731848700	       30.8349826200	       86.5166270600	        0.0000000000	        0.0000000000	       -2.1234450200	       -8.5805222400	       44.2798156800	        1.4444376000	       85.9436692700	        0.0000000000	        0.0000000000	
